{"title":"Wrath Of The Titans 2012 TS 720p READNFO XviD - ILLUMINATI","uid":7150941,"size":1510889595,"categoryP":"video","categoryS":"hd___movies","magnet":"?xt=urn:btih:19348ceeb78b14828038a1a619865104d2e6d184&amp;dn=Wrath+Of+The+Titans+2012+TS+720p+READNFO+XviD+-+ILLUMINATI&amp;tr=udp%3A%2F%2Ftracker.openbittorrent.com%3A80&amp;tr=udp%3A%2F%2Fopen.demonii.com%3A1337&amp;tr=udp%3A%2F%2Ftracker.coppersurfer.tk%3A6969&amp;tr=udp%3A%2F%2Fexodus.desync.com%3A6969","seeders":2,"leechers":0,"uploader":"Hackulus","files":-1,"time":1333309467,"description":"\n\nWrath Of The Titans 2012 TS READNFO XviD - ILLUMINATI\n &lt;a href=&quot;\nhttp://www.imdb.com/title/tt1646987/&quot; rel=&quot;nofollow&quot; target=&quot;_NEW&quot;&gt;\nhttp://www.imdb.com/title/tt1646987/&lt;/a&gt;\n\nVideo\nID : 0\nFormat : MPEG-4 Visual\nFormat profile : Advanced Simple@L5\nFormat settings, BVOP : 2\nFormat settings, QPel : No\nFormat settings, GMC : No warppoints\nFormat settings, Matrix : Default (H.263)\nMuxing mode : Packed bitstream\nCodec ID : XVID\nCodec ID/Hint : XviD\nDuration : 1h 30mn\nBit rate : 2 063 Kbps\nWidth : 720 pixels\nHeight : 320 pixels\nDisplay aspect ratio : 2.25:1\nFrame rate : 25.000 fps\nColor space : YUV\nChroma subsampling : 4:2:0\nBit depth : 8 bits\nScan type : Progressive\nCompression mode : Lossy\nBits/(Pixel*Frame) : 0.358\nStream size : 1.30 GiB (94%)\nWriting library : XviD 64\n\n\n\nAudio\nID : 1\nFormat : MPEG Audio\nFormat version : Version 1\nFormat profile : Layer 3\nMode : Joint stereo\nMode extension : MS Stereo\nCodec ID : 55\nCodec ID/Hint : MP3\nDuration : 1h 30mn\nBit rate mode : Constant\nBit rate : 128 Kbps\nChannel(s) : 2 channels\nSampling rate : 44.1 KHz\nCompression mode : Lossy\nStream size : 82.8 MiB (6%)\nAlignment : Split accross interleaves\nInterleave, duration : 40 ms (1.00 video frame)\n\nSource\nVideo - Russian / ??? Thanks\nAudio - Littlebird\n\nPerseus braves the treacherous underworld to rescue his father, Zeus, captured by his son, Ares, and brother Hades who unleash the ancient Titans upon the world. \n\nREADNFO\n\n3 minutes of russian cam used to fill gaps, main film is 720p source\nMain video has hardcoded Arabic Subs but video is very nice\nCropped bottom line of subs, left top line but doesnt show much\n\n","torrent":{"xt":"urn:btih:19348ceeb78b14828038a1a619865104d2e6d184","amp;dn":"Wrath+Of+The+Titans+2012+TS+720p+READNFO+XviD+-+ILLUMINATI","amp;tr":["udp%3A%2F%2Ftracker.openbittorrent.com%3A80","udp%3A%2F%2Fopen.demonii.com%3A1337","udp%3A%2F%2Ftracker.coppersurfer.tk%3A6969","udp%3A%2F%2Fexodus.desync.com%3A6969"],"infoHash":"19348ceeb78b14828038a1a619865104d2e6d184","infoHashBuffer":{"type":"Buffer","data":[25,52,140,238,183,139,20,130,128,56,161,166,25,134,81,4,210,230,209,132]},"announce":[],"urlList":[]}}